[IMG]http://i981.photobucket.com/albums/ae294/fasamoo/gogo.gif[/IMG]

[img]http://www.japanesemoviepostercompany.com/jpegs/2046B1.jpg[/img]

[IMG]http://i981.photobucket.com/albums/ae294/fasamoo/plot.gif[/IMG]

He was a writer. He thought he wrote about the future but it really was the past. In his novel, a mysterious train left for 2046 every once in a while. Everyone who went there had the same intention.....to recapture their lost memories. It was said that in 2046, nothing ever changed. Nobody knew for sure if it was true, because nobody who went there had ever come back- except for one. He was there. He chose to leave. He wanted to change.  
 
[IMG]http://i981.photobucket.com/albums/ae294/fasamoo/screenshots.gif[/IMG]

[url=http://www.imgboot.com/image.php?u=fasamoo&i=20462004dvdripgogo201005240415197.jpg][img]http://imgboot.com/images/fasamoo/20462004dvdripgogo201005240415197.jpg[/img][/url]
[url=http://www.imgboot.com/image.php?u=fasamoo&i=20462004dvdripgogo201005240416058.jpg][img]http://imgboot.com/images/fasamoo/20462004dvdripgogo201005240416058.jpg[/img][/url]
[url=http://www.imgboot.com/image.php?u=fasamoo&i=20462004dvdripgogo201005240416354.jpg][img]http://imgboot.com/images/fasamoo/20462004dvdripgogo201005240416354.jpg[/img][/url]
[url=http://www.imgboot.com/image.php?u=fasamoo&i=20462004dvdripgogo201005240417476.jpg][img]http://imgboot.com/images/fasamoo/20462004dvdripgogo201005240417476.jpg[/img][/url]
[url=http://www.imgboot.com/image.php?u=fasamoo&i=20462004dvdripgogo201005240421361.jpg][img]http://imgboot.com/images/fasamoo/20462004dvdripgogo201005240421361.jpg[/img][/url]
[url=http://www.imgboot.com/image.php?u=fasamoo&i=20462004dvdripgogo201005240423505.jpg][img]http://imgboot.com/images/fasamoo/20462004dvdripgogo201005240423505.jpg[/img][/url]
[url=http://www.imgboot.com/image.php?u=fasamoo&i=20462004dvdripgogo201005240425082.jpg][img]http://imgboot.com/images/fasamoo/20462004dvdripgogo201005240425082.jpg[/img][/url]

[IMG]http://i981.photobucket.com/albums/ae294/fasamoo/info.gif[/IMG]

General
Complete name                    : 2046 (2004) DVDRip GoGo2046 (2004) DVDRip GoGo.avi
IMDB Link                        : http://www.imdb.com/title/tt0212712/
Format                           : AVI
Format/Info                      : Audio Video Interleave
File size                        : 800 MiB
Duration                         : 2h 9mn
Overall bit rate                 : 865 Kbps
Writing application              : VirtualDubMod 1.5.4.1 (build 2178/release)
Writing library                  : VirtualDubMod build 2178/release

Video
ID                               : 0
Format                           : MPEG-4 Visual
Format profile                   : Advanced Simple@L5
Format settings, BVOP            : Yes
Format settings, QPel            : No
Format settings, GMC             : No warppoints
Format settings, Matrix          : Custom
Codec ID                         : XVID
Codec ID/Hint                    : XviD
Duration                         : 2h 9mn
Bit rate                         : 737 Kbps
Width                            : 720 pixels
Height                           : 272 pixels
Display aspect ratio             : 2.647
Frame rate                       : 23.976 fps
Resolution                       : 8 bits
Colorimetry                      : 4:2:0
Scan type                        : Progressive
Bits/(Pixel*Frame)               : 0.157
Stream size                      : 682 MiB (85%)
Writing library                  : XviD 1.2.1 (UTC 2008-12-04)

Audio
ID                               : 1
Format                           : MPEG Audio
Format version                   : Version 1
Format profile                   : Layer 3
Mode                             : Joint stereo
Format_Settings_ModeExtension    : MS Stereo
Codec ID                         : 55
Codec ID/Hint                    : MP3
Duration                         : 2h 9mn
Bit rate mode                    : Variable
Bit rate                         : 115 Kbps
Nominal bit rate                 : 128 Kbps
Channel(s)                       : 2 channels
Sampling rate                    : 48.0 KHz
Stream size                      : 106 MiB (13%)
Alignment                        : Aligned on interleaves
Interleave, duration             : 24 ms (0.58 video frame)
Interleave, preload duration     : 160 ms
Writing library                  : LAME3.98r
Encoding settings                : -m j -V 4 -q 2 -lowpass 17 --abr 128
Language                         : Chinese
Subtitles                        : English,Chinese,Thai,Malay.(.IDX+*.SUB)
                                 : English.(.srt)
Genre                            : Drama | Fantasy | Romance | Sci-Fi 

[IMG]http://i981.photobucket.com/albums/ae294/fasamoo/pleaseseed.gif[/IMG]